# xmcd
#
# Track frame offsets:
#	150
#	18960
#	38800
#	69644
#	96327
#	99942
#	142890
#	158108
#	170577
#	191286
#	207986
#	255882
#	301185
#	329618
#
# Disc length: 4763 seconds
#
# Revision: 0
# Processed by: cddbd v1.5.2PL0 Copyright (c) Steve Scherf et al.
# Submitted via: EZCDAudioConverter 1.3.4.1
#
DISCID=b212990e
DTITLE=Azymuth - Light As A Feather
DYEAR=2012
DGENRE=
TTITLE0=Partido Alto
TTITLE1=Avenida Das Mangueiras
TTITLE2=Light As A Feather
TTITLE3=Fly Over The Horizon (Vôo Sobre O Horizonte)
TTITLE4=Amazonia
TTITLE5=Jazz Carnival
TTITLE6=Young Embrace (Um Abraço Da Mocidade)
TTITLE7=Dona Olimpia
TTITLE8=This Exists (Existe Isto)
TTITLE9=O Pescador
TTITLE10=Jazz Carnival [Full Original Mix]
TTITLE11=Avenida Das Mangueiras [SS Translation By Theo Parrish]
TTITLE12=Codsall Juniors - Endless Flight [Mark E]
TTITLE13=Jazz Carnival - Yambee Rework [Ashley Beedle And Yam Who? Remix]
EXTD=
EXTT0=
EXTT1=
EXTT2=
EXTT3=
EXTT4=
EXTT5=
EXTT6=
EXTT7=
EXTT8=
EXTT9=
EXTT10=
EXTT11=
EXTT12=
EXTT13=
PLAYORDER=
